<?xml version="1.0" encoding="utf-8"?>
<!-- Generator: Adobe Illustrator 26.0.0, SVG Export Plug-In . SVG Version: 6.00 Build 0)  -->
<svg version="1.1" id="Capa_1" xmlns="http://www.w3.org/2000/svg" xmlns:xlink="http://www.w3.org/1999/xlink" x="0px" y="0px"
	 viewBox="0 0 500 500" style="enable-background:new 0 0 500 500;" xml:space="preserve">
<style type="text/css">
	.st0{fill:#DCC100;}
</style>
<path d="M152.5,229.4c-14-17.6-7.6-35.5,2.4-56.2c-8.4,1.9-15.1,2.2-20.7,4.9c-26.7,12.8-44.8,52.7-38.1,81.6
	c2.9,12.4,19.5,29.5,36.3,27.8c17.1-1.7,30,7.2,39.1,21c2.6,3.9,2.8,9.2,3.4,14.2c-2-9-7.8-13.8-16.3-15
	c-12.5-1.8-22.2,3.1-29.8,14.2c-1.9-2-3.7-3.6-5-5.5c-8.2-12.3-16.6-24.4-24.3-37c-15-24.4-10-48.8,1.6-72.5
	c14.9-30.6,37.9-54.7,64.6-76.3c22.4,20.5,43.9,14.2,64.9-3.6c0.4,0.8,0.8,1.6,1.2,2.4c-5.7,5-10.9,10.6-17.1,14.8
	c-12.9,8.8-26.7,16.3-39.3,25.4c-8,5.8-15.7,12.7-21.3,20.7C145.9,202.5,145.6,216,152.5,229.4z"/>
<path d="M309,142.2c12,5.2,22.3,10.9,33.2,14.1c14,4.1,28.8-4,33.7-16.5c3.6-9.1,1.2-15.5-7.4-19.7c6.7-0.3,10.6,1.8,10.8,8.7
	c0.2,7.2-0.4,15.9-4.2,21.4c-6.4,9-15.8,16-23.8,23.9c-1.9,1.9-4.8,4.3-4.8,6.5c0,22.8,0.4,45.7,0.8,68.5c0,0.7,0.6,1.4,0.9,2.1
	c34.7-7.6,47.1-5.3,51.8,9.7c-11.8-12-20.1-12.9-34.1-2.8c-11.1,8-18.6,18.3-18.2,32.9c0.3,13.1-0.2,26.2,0.6,39.2
	c0.9,15.9,12.9,25,28.5,22.7c17.5-2.7,34-21.6,34.2-39.3c0.1-9.5-3-14.7-11.7-18.8c7.7-0.9,10.4,4.1,12.5,9.2
	c5.5,13.4,1.1,25.7-7.2,35.9c-8.4,10.2-18.8,18.8-28.5,27.8c-7.5,7-16.2,12.8-22.9,20.5c-9.8,11.2-9.8,24.2-2.4,36.3
	c-11.5-13-11.5-28.1-7.8-44c-10-8.1-17.6-10.5-42.6-13.4c0-0.5-0.2-1.3,0-1.5c11.7-7.9,14-18.8,13.6-32.4
	c-1.5-46.7-1.8-93.5-2.6-140.3c-0.1-7.8-14.3-21.7-21.6-19.9c-3.3,0.8-7.7,6.7-7.7,10.4c-0.3,25.9-0.1,51.8,1.4,77.6
	c0.3,5.4,7,10.5,11.2,16.3c-0.6,0.4-2,1.5-3.6,2.3c-5.6,2.8-8,6.8-7.8,13.3c0.6,13.6,0.7,27.3,0.5,40.9c-0.2,8.9,0.1,16.9,12.1,19
	c-9.9,11.9-21.4,21.5-22.5,35.7c-12.2-8-24.9-16.3-37.7-24.7c0.2-0.1,1.8-2,3.8-2.6c9.7-3,11.7-9.6,10.9-19.1
	c-1.1-12.7-0.8-25.6-0.6-38.4c0.1-10.2-0.4-19.7-11.1-24c0-1.3-0.2-2,0-2.3c9.1-8.6,10.7-19.2,10.1-31.2
	c-0.9-17.8-0.8-35.6-0.5-53.5c0.1-5.7-1.8-9.3-6.6-12.3c-7.3-4.5-14.4-9.4-22.8-14.9c-0.2,3.6-0.5,6.2-0.4,8.7
	c1.1,58.5,2.1,116.9,3.4,175.4c0.1,6.3-1.4,10.1-6.9,13.5c-14.1,8.8-27.9,18.2-43.4,28.5c29.5,5.9,54.2,22.9,84,21
	c14.8-0.9,24.4-6.3,30.3-18c0.7,0.3,1.3,0.7,2,1c-2.1,4.1-3.3,9.9-6.6,11.9c-8.5,4.9-17.8,8.4-27.1,11.9
	c-10.4,3.9-21.4,6.3-31.4,10.9c-5.5,2.5-10.2,7.7-14.2,12.6c-6.7,8.3-6.5,14.6-1.3,23.1c-8.1-5.3-9.6-14-7.7-22.2
	c2.3-9.5-2-12.7-9.5-15.9c-23-9.6-46.4-17.6-71.8-16.6c-11.6,0.4-22.7,2.6-31.2,11.7c-5.4,5.7-9.5,11.7-4.6,20
	c-6.1-6.7-4.7-13.9,0.4-19.2c6-6.3,13-12.9,20.9-15.9c17.4-6.4,35.4-11.3,53.5-15.5c12.4-2.8,23-9.7,23.9-22.1
	c2-29,2.5-58.2,3.5-85.2c-10.3-3-18.2-4.7-25.6-7.7c-2.7-1.1-4.1-5.3-5.5-8.6c5.8,6.8,11.8,5.4,17.8,1.2
	c7.4-5.2,10.8-12.8,10.8-21.5c0.1-14.8-0.3-29.5-0.6-44.3c-0.2-8.9-4-16.1-13.8-21.4c30-10.9,55-26,74.6-50.2
	c2.3,2.6,5.2,5.9,8.1,9.1c8.5,9.5,18.6,16.5,30.7,20.9c5.1,1.9,8.1,1,11.5-2.8C298.3,153.3,304.5,147,309,142.2z"/>
<path class="st0" d="M311,83.6c-25.1,0-26.7-20-26.7-20l-1.7-31.7l-1.7,31.7c0,0-1.7,20-26.7,20l-30.1,1.7l30.1,1.7
	c0,0,23.4,3.3,25.1,15c1.7,11.7,3.3,31.7,3.3,31.7s1.7-20,3.3-31.7c1.7-11.7,25.1-15,25.1-15l30.1-1.7L311,83.6z"/>
</svg>
